<svg width="26" height="26" viewBox="0 0 26 26" fill="none" xmlns="http://www.w3.org/2000/svg">
<path d="M8.6665 17.3333L18.1133 16.5461C21.0692 16.2998 21.7327 15.6542 22.0603 12.7063L22.7498 6.5" stroke="white" stroke-width="2" stroke-linecap="round"/>
<path d="M6.5 6.5H23.8333" stroke="white" stroke-width="2" stroke-linecap="round"/>
<path d="M6.50016 23.8333C7.69678 23.8333 8.66683 22.8633 8.66683 21.6667C8.66683 20.47 7.69678 19.5 6.50016 19.5C5.30355 19.5 4.3335 20.47 4.3335 21.6667C4.3335 22.8633 5.30355 23.8333 6.50016 23.8333Z" stroke="white" stroke-width="2"/>
<path d="M18.4167 23.8333C19.6133 23.8333 20.5833 22.8633 20.5833 21.6667C20.5833 20.47 19.6133 19.5 18.4167 19.5C17.22 19.5 16.25 20.47 16.25 21.6667C16.25 22.8633 17.22 23.8333 18.4167 23.8333Z" stroke="white" stroke-width="2"/>
<path d="M8.6665 21.6667H16.2498" stroke="white" stroke-width="2" stroke-linecap="round"/>
<path d="M2.1665 2.16675H3.213C4.23641 2.16675 5.12849 2.84339 5.3767 3.80792L8.5999 16.333C8.76278 16.966 8.62339 17.6364 8.22043 18.1585L7.18465 19.5001" stroke="white" stroke-width="2" stroke-linecap="round"/>
</svg>
