<svg width="32" height="32" viewBox="0 0 32 32" fill="none" xmlns="http://www.w3.org/2000/svg">
<path d="M5.7878 22.5041L4.23715 13.2474C3.98492 11.7417 3.85881 10.9889 4.24716 10.4944C4.63549 10 5.35291 10 6.78772 10H25.2123C26.6471 10 27.3645 10 27.7528 10.4944C28.1412 10.9889 28.0151 11.7417 27.7628 13.2474L26.2121 22.5041C25.6653 25.7685 25.392 27.4007 24.3092 28.3669C23.2265 29.3333 21.6712 29.3333 18.5605 29.3333H13.4395C10.3289 29.3333 8.77352 29.3333 7.69079 28.3669C6.60804 27.4007 6.33463 25.7685 5.7878 22.5041Z" stroke="black" stroke-width="1.5"/>
<path d="M9.33331 10V9.33334C9.33331 5.65145 12.3181 2.66667 16 2.66667C19.6818 2.66667 22.6666 5.65145 22.6666 9.33334V10" stroke="black" stroke-width="1.5"/>
<path d="M6 23.3333H26" stroke="black" stroke-width="1.5"/>
</svg>
