<svg width="32" height="32" viewBox="0 0 32 32" fill="none" xmlns="http://www.w3.org/2000/svg">
<path d="M16 29.3333C23.3638 29.3333 29.3334 23.3638 29.3334 16C29.3334 8.63621 23.3638 2.66667 16 2.66667C8.63622 2.66667 2.66669 8.63621 2.66669 16C2.66669 23.3638 8.63622 29.3333 16 29.3333Z" stroke="black" stroke-width="1.5"/>
<path d="M10 22.6667C13.1089 19.4104 18.8576 19.2571 22 22.6667M19.3268 12.6667C19.3268 14.5076 17.8323 16 15.9887 16C14.1452 16 12.6506 14.5076 12.6506 12.6667C12.6506 10.8257 14.1452 9.33333 15.9887 9.33333C17.8323 9.33333 19.3268 10.8257 19.3268 12.6667Z" stroke="black" stroke-width="1.5" stroke-linecap="round"/>
</svg>
